<svg xmlns="http://www.w3.org/2000/svg" version="1.1" xmlns:xlink="http://www.w3.org/1999/xlink" xmlns:svgjs="http://svgjs.dev/svgjs" width="1876" height="1046" preserveAspectRatio="none" viewBox="0 0 1876 1046"><g mask="url(&quot;#SvgjsMask4728&quot;)" fill="none"><rect width="1876" height="1046" x="0" y="0" fill="rgba(0, 145, 255, 0.95)"></rect><path d="M66 1046L1112 0L1221.5 0L175.5 1046z" fill="url(&quot;#SvgjsLinearGradient4729&quot;)"></path><path d="M669.08 1046L1715.08 0L2225.08 0L1179.08 1046z" fill="url(&quot;#SvgjsLinearGradient4729&quot;)"></path><path d="M1840 1046L794 0L698 0L1744 1046z" fill="url(&quot;#SvgjsLinearGradient4730&quot;)"></path><path d="M1182.92 1046L136.92000000000007 0L-472.0799999999999 0L573.9200000000001 1046z" fill="url(&quot;#SvgjsLinearGradient4730&quot;)"></path><path d="M853.5209855490623 1046L1876 23.52098554906229L1876 1046z" fill="url(&quot;#SvgjsLinearGradient4729&quot;)"></path><path d="M0 1046L1022.4790144509377 1046L 0 23.52098554906229z" fill="url(&quot;#SvgjsLinearGradient4730&quot;)"></path></g><defs><mask id="SvgjsMask4728"><rect width="1876" height="1046" fill="#ffffff"></rect></mask><linearGradient x1="0%" y1="100%" x2="100%" y2="0%" id="SvgjsLinearGradient4729"><stop stop-color="rgba(69, 111, 196, 1)" offset="0"></stop><stop stop-opacity="0" stop-color="rgba(69, 111, 196, 1)" offset="0.66"></stop></linearGradient><linearGradient x1="100%" y1="100%" x2="0%" y2="0%" id="SvgjsLinearGradient4730"><stop stop-color="rgba(69, 111, 196, 1)" offset="0"></stop><stop stop-opacity="0" stop-color="rgba(69, 111, 196, 1)" offset="0.66"></stop></linearGradient></defs></svg>