<svg xmlns="http://www.w3.org/2000/svg" version="1.1" xmlns:xlink="http://www.w3.org/1999/xlink" xmlns:svgjs="http://svgjs.dev/svgjs" width="1033" height="833" preserveAspectRatio="none" viewBox="0 0 1033 833"><g mask="url(&quot;#SvgjsMask1050&quot;)" fill="none"><rect width="1033" height="833" x="0" y="0" fill="rgba(0, 25, 255, 1)"></rect><rect width="156" height="156" clip-path="url(&quot;#SvgjsClipPath1051&quot;)" x="145.19" y="43.91" fill="url(&quot;#SvgjsPattern1052&quot;)" transform="rotate(13.35, 223.19, 121.91)"></rect><rect width="458.88" height="458.88" clip-path="url(&quot;#SvgjsClipPath1053&quot;)" x="515.37" y="393.35" fill="url(&quot;#SvgjsPattern1054&quot;)" transform="rotate(257.85, 744.81, 622.79)"></rect><circle r="95.9002006237314" cx="736.87" cy="432.64" stroke="rgba(0, 236, 255, 1)" stroke-width="1.52" stroke-dasharray="3, 2"></circle><path d="M477.09 391.37a5.6 5.6 0 1 0-6.61 9.04 5.6 5.6 0 1 0 6.61-9.04zM467.65 404.29a5.6 5.6 0 1 0-6.6 9.05 5.6 5.6 0 1 0 6.6-9.05zM458.22 417.21a5.6 5.6 0 1 0-6.61 9.05 5.6 5.6 0 1 0 6.61-9.05zM448.78 430.14a5.6 5.6 0 1 0-6.6 9.04 5.6 5.6 0 1 0 6.6-9.04zM483.03 356.09a5.6 5.6 0 1 0-6.6 9.04 5.6 5.6 0 1 0 6.6-9.04zM473.6 369.01a5.6 5.6 0 1 0-6.61 9.05 5.6 5.6 0 1 0 6.61-9.05zM464.16 381.93a5.6 5.6 0 1 0-6.6 9.05 5.6 5.6 0 1 0 6.6-9.05zM454.73 394.86a5.6 5.6 0 1 0-6.6 9.04 5.6 5.6 0 1 0 6.6-9.04zM488.98 320.81a5.6 5.6 0 1 0-6.61 9.04 5.6 5.6 0 1 0 6.61-9.04zM479.54 333.73a5.6 5.6 0 1 0-6.6 9.05 5.6 5.6 0 1 0 6.6-9.05zM470.11 346.65a5.6 5.6 0 1 0-6.61 9.05 5.6 5.6 0 1 0 6.61-9.05zM460.67 359.58a5.6 5.6 0 1 0-6.6 9.04 5.6 5.6 0 1 0 6.6-9.04z" fill="rgba(156, 255, 0, 1)"></path><circle r="69.41666666666667" cx="345.97" cy="623.68" stroke="rgba(156, 255, 0, 1)" stroke-width="1.24" stroke-dasharray="3, 2"></circle><path d="M985.71 728.67L991.16 740.26 981.06 748.12 986.51 759.71 976.4 767.57 981.85 779.16 971.74 787.02" stroke="rgba(156, 255, 0, 1)" stroke-width="1.82" stroke-dasharray="3, 3"></path></g><defs><mask id="SvgjsMask1050"><rect width="1033" height="833" fill="#ffffff"></rect></mask><pattern x="0" y="0" width="156" height="6" patternUnits="userSpaceOnUse" id="SvgjsPattern1052"><rect width="156" height="3" x="0" y="0" fill="rgba(0, 236, 255, 1)"></rect><rect width="156" height="3" x="0" y="3" fill="rgba(0, 0, 0, 0)"></rect></pattern><clipPath id="SvgjsClipPath1051"><circle r="39" cx="223.19" cy="121.91"></circle></clipPath><pattern x="0" y="0" width="458.88" height="9.56" patternUnits="userSpaceOnUse" id="SvgjsPattern1054"><rect width="458.88" height="4.78" x="0" y="0" fill="rgba(255, 0, 244, 1)"></rect><rect width="458.88" height="4.78" x="0" y="4.78" fill="rgba(0, 0, 0, 0)"></rect></pattern><clipPath id="SvgjsClipPath1053"><circle r="114.72" cx="744.81" cy="622.79"></circle></clipPath></defs></svg>